<svg version="1.2" xmlns="http://www.w3.org/2000/svg" viewBox="0 0 1844 214" width="1844" height="214">
	<title>Shape</title>
	<style>
		.s0 { fill: #29a19c } 
	</style>
	<path id="Shape" fill-rule="evenodd" class="s0" d="m1844 214v-56.1c-8.7-5.4-17.9-10.4-26.9-15.2-328.8-176.4-597.2 40.5-912 3.1-141-16.8-223.7-102.1-362.3-123.6-156.4-24.4-220.4 52.2-354.7 62.6-61.5 4.8-127.4 5.7-188.1-5.1v134.3zm-275.4-187.3c-7.5 17.9-49.9 19.1-76.4 21-8 0.6-15.4 1.4-22.8 3-6.5 1.5-13.3 2.6-20.3 0.8-6.5-1.6-8.8-4.5-8.6-7.4-0.4-0.9-0.3-2 0.3-3 4.5-7.3 19.6-14 29.4-18.9 12.3-6 27-10.8 43.4-12.7 20.9-2.4 62.7-1.3 55 17.2zm74-2.7c-6.5 4.4-16.5 7.9-27 7.9-10.8-0.1-21.1-4.7-22.1-10.9-3.1-3.7-2-8.4 2-12.3 5.7-5.3 16.7-8 27.3-8.6 11-0.7 22.6 1.7 26.6 7.9 3.7 5.6-0.4 11.5-6.8 16z"/>
</svg>